# xmcd
#
# Track frame offsets: 
#        150
#        20951
#        41633
#        81420
#
# Disc length: 1360 seconds
#
# Revision: 2
# Processed by: cddbd v1.5.2PL0 Copyright (c) Steve Scherf et al.
# Submitted via: ExactAudioCopy v1.0b1
#
DISCID=31054e04
DTITLE=Santana - Corazon Espinando
DYEAR=2000
DGENRE=Latin
TTITLE0=Corazon Espinando - Album Version
TTITLE1=Corazon Espinando - Spanish Dance Remix
TTITLE2=Corazon Espinando - Spanish - English Dance Remix
TTITLE3=Corazon Espinando - Spanish - English Dance Remix (Edit)
EXTD=
EXTT0=
EXTT1=
EXTT2=
EXTT3=
PLAYORDER=
